<svg xmlns="http://www.w3.org/2000/svg" viewBox="0 0 1200 675" width="1200" height="675" role="img">
<defs>
<linearGradient id="sky" x1="0" y1="0" x2="0.35" y2="1">
<stop offset="0" stop-color="#08222f"/><stop offset="0.55" stop-color="#0e3a50"/><stop offset="1" stop-color="#134a63"/>
</linearGradient>
<radialGradient id="halo" cx="0.5" cy="0.5" r="0.5">
<stop offset="0" stop-color="#e6d2b5" stop-opacity="0.5"/>
<stop offset="0.55" stop-color="#e6d2b5" stop-opacity="0.13"/>
<stop offset="1" stop-color="#e6d2b5" stop-opacity="0"/>
</radialGradient>
<radialGradient id="disc" cx="0.36" cy="0.32" r="0.78">
<stop offset="0" stop-color="#fffdfa"/><stop offset="0.6" stop-color="#f7f2ec"/><stop offset="1" stop-color="#e6d2b5"/>
</radialGradient>
<radialGradient id="voidDisc" cx="0.38" cy="0.34" r="0.8">
<stop offset="0" stop-color="#14384a"/><stop offset="1" stop-color="#081d28"/>
</radialGradient>
<radialGradient id="vig" cx="0.5" cy="0.45" r="0.75">
<stop offset="0.55" stop-color="#000" stop-opacity="0"/><stop offset="1" stop-color="#000" stop-opacity="0.4"/>
</radialGradient>
</defs>
<rect width="1200" height="675" fill="url(#sky)"/>
<circle cx="1109.8" cy="589.1" r="0.8" fill="#f7f2ec" opacity="0.19"/><circle cx="368.1" cy="235.5" r="1.2" fill="#f7f2ec" opacity="0.25"/><circle cx="230.4" cy="276.1" r="1.0" fill="#f7f2ec" opacity="0.53"/><circle cx="1082.0" cy="65.8" r="2.4" fill="#f7f2ec" opacity="0.46"/><circle cx="23.5" cy="389.8" r="1.4" fill="#f7f2ec" opacity="0.38"/><circle cx="69.1" cy="486.3" r="1.8" fill="#f7f2ec" opacity="0.39"/><circle cx="206.3" cy="134.2" r="2.4" fill="#f7f2ec" opacity="0.39"/><circle cx="911.7" cy="229.0" r="1.8" fill="#f7f2ec" opacity="0.34"/><circle cx="1169.6" cy="355.8" r="1.4" fill="#f7f2ec" opacity="0.28"/><circle cx="579.7" cy="491.5" r="2.4" fill="#f7f2ec" opacity="0.55"/><circle cx="218.4" cy="110.9" r="1.2" fill="#f7f2ec" opacity="0.56"/><circle cx="624.1" cy="361.6" r="0.8" fill="#f7f2ec" opacity="0.24"/><circle cx="46.7" cy="171.1" r="1.8" fill="#f7f2ec" opacity="0.34"/><circle cx="708.0" cy="67.7" r="1.2" fill="#f7f2ec" opacity="0.49"/><circle cx="1073.4" cy="282.4" r="1.0" fill="#f7f2ec" opacity="0.33"/><circle cx="128.6" cy="486.7" r="2.4" fill="#f7f2ec" opacity="0.63"/><circle cx="591.6" cy="203.9" r="1.0" fill="#f7f2ec" opacity="0.7"/><circle cx="711.2" cy="587.1" r="1.0" fill="#f7f2ec" opacity="0.44"/><circle cx="40.5" cy="391.8" r="1.4" fill="#f7f2ec" opacity="0.19"/><circle cx="971.5" cy="426.8" r="1.0" fill="#f7f2ec" opacity="0.64"/><circle cx="1138.6" cy="334.5" r="1.4" fill="#f7f2ec" opacity="0.61"/><circle cx="415.4" cy="605.1" r="1.4" fill="#f7f2ec" opacity="0.46"/><circle cx="44.4" cy="164.1" r="1.8" fill="#f7f2ec" opacity="0.29"/><circle cx="1120.3" cy="590.2" r="1.0" fill="#f7f2ec" opacity="0.23"/><circle cx="667.6" cy="403.3" r="2.4" fill="#f7f2ec" opacity="0.49"/><circle cx="975.4" cy="157.2" r="1.4" fill="#f7f2ec" opacity="0.27"/><circle cx="14.1" cy="473.2" r="2.4" fill="#f7f2ec" opacity="0.69"/><circle cx="976.5" cy="555.9" r="2.4" fill="#f7f2ec" opacity="0.64"/><circle cx="83.5" cy="596.5" r="2.4" fill="#f7f2ec" opacity="0.61"/><circle cx="655.0" cy="264.0" r="1.2" fill="#f7f2ec" opacity="0.62"/><circle cx="668.5" cy="341.5" r="1.2" fill="#f7f2ec" opacity="0.24"/><circle cx="757.5" cy="206.5" r="1.8" fill="#f7f2ec" opacity="0.6"/><circle cx="516.5" cy="102.7" r="2.4" fill="#f7f2ec" opacity="0.22"/><circle cx="674.4" cy="336.5" r="1.0" fill="#f7f2ec" opacity="0.69"/><circle cx="1149.1" cy="496.5" r="2.4" fill="#f7f2ec" opacity="0.34"/><circle cx="405.8" cy="14.7" r="1.0" fill="#f7f2ec" opacity="0.61"/><circle cx="482.1" cy="492.8" r="0.8" fill="#f7f2ec" opacity="0.28"/><circle cx="539.2" cy="262.4" r="0.8" fill="#f7f2ec" opacity="0.42"/><circle cx="332.7" cy="370.9" r="1.8" fill="#f7f2ec" opacity="0.59"/><circle cx="213.2" cy="330.6" r="1.2" fill="#f7f2ec" opacity="0.69"/><circle cx="103.7" cy="544.4" r="1.4" fill="#f7f2ec" opacity="0.4"/><circle cx="21.4" cy="283.7" r="1.4" fill="#f7f2ec" opacity="0.35"/><circle cx="383.6" cy="217.0" r="1.2" fill="#f7f2ec" opacity="0.34"/><circle cx="1116.2" cy="99.6" r="0.8" fill="#f7f2ec" opacity="0.42"/><circle cx="979.8" cy="296.7" r="1.8" fill="#f7f2ec" opacity="0.68"/><circle cx="646.6" cy="429.1" r="1.4" fill="#f7f2ec" opacity="0.3"/><circle cx="316.7" cy="529.3" r="1.8" fill="#f7f2ec" opacity="0.39"/><circle cx="744.6" cy="614.6" r="1.2" fill="#f7f2ec" opacity="0.5"/><circle cx="530.6" cy="533.0" r="1.2" fill="#f7f2ec" opacity="0.63"/><circle cx="133.6" cy="473.5" r="1.8" fill="#f7f2ec" opacity="0.54"/><circle cx="51.2" cy="501.3" r="1.2" fill="#f7f2ec" opacity="0.29"/><circle cx="678.3" cy="386.3" r="0.8" fill="#f7f2ec" opacity="0.28"/><circle cx="610.9" cy="379.3" r="1.2" fill="#f7f2ec" opacity="0.35"/><circle cx="93.9" cy="568.3" r="2.4" fill="#f7f2ec" opacity="0.52"/><circle cx="49.2" cy="74.7" r="2.4" fill="#f7f2ec" opacity="0.28"/><circle cx="22.9" cy="379.4" r="1.0" fill="#f7f2ec" opacity="0.71"/><circle cx="353.4" cy="556.8" r="1.2" fill="#f7f2ec" opacity="0.5"/><circle cx="924.8" cy="510.2" r="1.8" fill="#f7f2ec" opacity="0.61"/><circle cx="122.9" cy="18.2" r="1.2" fill="#f7f2ec" opacity="0.23"/><circle cx="1028.3" cy="128.0" r="1.4" fill="#f7f2ec" opacity="0.75"/><circle cx="909.0" cy="138.2" r="1.8" fill="#f7f2ec" opacity="0.67"/><circle cx="523.2" cy="224.7" r="2.4" fill="#f7f2ec" opacity="0.31"/><circle cx="673.1" cy="460.4" r="1.4" fill="#f7f2ec" opacity="0.69"/><circle cx="1177.7" cy="610.1" r="1.0" fill="#f7f2ec" opacity="0.38"/><circle cx="1178.4" cy="192.7" r="0.8" fill="#f7f2ec" opacity="0.46"/><circle cx="420.3" cy="130.6" r="2.4" fill="#f7f2ec" opacity="0.49"/><circle cx="252.7" cy="252.6" r="0.8" fill="#f7f2ec" opacity="0.2"/><circle cx="883.1" cy="293.4" r="1.0" fill="#f7f2ec" opacity="0.52"/><circle cx="497.2" cy="152.7" r="1.2" fill="#f7f2ec" opacity="0.2"/><circle cx="355.5" cy="508.3" r="1.4" fill="#f7f2ec" opacity="0.65"/><circle cx="690.7" cy="600.8" r="1.8" fill="#f7f2ec" opacity="0.69"/><circle cx="757.6" cy="505.4" r="1.0" fill="#f7f2ec" opacity="0.7"/><circle cx="1177.5" cy="410.5" r="1.4" fill="#f7f2ec" opacity="0.74"/><circle cx="547.7" cy="2.0" r="2.4" fill="#f7f2ec" opacity="0.4"/><circle cx="68.5" cy="21.2" r="1.4" fill="#f7f2ec" opacity="0.38"/><circle cx="1131.6" cy="417.1" r="2.4" fill="#f7f2ec" opacity="0.68"/><circle cx="863.1" cy="89.2" r="0.8" fill="#f7f2ec" opacity="0.61"/><circle cx="973.9" cy="288.3" r="0.8" fill="#f7f2ec" opacity="0.71"/><circle cx="508.2" cy="426.3" r="2.4" fill="#f7f2ec" opacity="0.64"/><circle cx="140.8" cy="11.0" r="1.8" fill="#f7f2ec" opacity="0.53"/><circle cx="637.9" cy="122.5" r="1.2" fill="#f7f2ec" opacity="0.63"/><circle cx="374.6" cy="437.0" r="1.4" fill="#f7f2ec" opacity="0.46"/><circle cx="655.1" cy="491.1" r="1.2" fill="#f7f2ec" opacity="0.37"/><circle cx="886.8" cy="136.7" r="2.4" fill="#f7f2ec" opacity="0.5"/><circle cx="1081.4" cy="95.1" r="2.4" fill="#f7f2ec" opacity="0.62"/><circle cx="167.6" cy="575.4" r="2.4" fill="#f7f2ec" opacity="0.7"/><circle cx="1163.6" cy="68.8" r="1.8" fill="#f7f2ec" opacity="0.23"/><circle cx="97.6" cy="493.9" r="2.4" fill="#f7f2ec" opacity="0.45"/><circle cx="1123.7" cy="21.9" r="1.2" fill="#f7f2ec" opacity="0.34"/><circle cx="687.4" cy="616.3" r="2.4" fill="#f7f2ec" opacity="0.18"/><path d="M1036.7 428.7L1039.78 436.62 1047.7 439.7 1039.78 442.78 1036.7 450.7 1033.6200000000001 442.78 1025.7 439.7 1033.6200000000001 436.62Z" fill="#f7f2ec" opacity="0.5"/><path d="M784.3 323.2L786.4839999999999 328.816 792.0999999999999 331.0 786.4839999999999 333.184 784.3 338.8 782.116 333.184 776.5 331.0 782.116 328.816Z" fill="#f7f2ec" opacity="0.5"/><path d="M948.8 250.20000000000002L951.992 258.408 960.1999999999999 261.6 951.992 264.79200000000003 948.8 273.0 945.608 264.79200000000003 937.4 261.6 945.608 258.408Z" fill="#f7f2ec" opacity="0.5"/><path d="M1013.5 154.6L1017.028 163.672 1026.1 167.2 1017.028 170.72799999999998 1013.5 179.79999999999998 1009.972 170.72799999999998 1000.9 167.2 1009.972 163.672Z" fill="#f7f2ec" opacity="0.5"/><circle cx="600.0" cy="300" r="340" fill="url(#halo)"/><path d="M336 292 L505 273 L695 273 L864 292" fill="none" stroke="#a5854e" stroke-width="1.2" opacity="0.6"/><circle cx="336" cy="292" r="87" fill="url(#halo)" opacity="0.55"/><circle cx="336" cy="292" r="46" fill="#8bc4c5" opacity="0.95"/><circle cx="336" cy="292" r="68" fill="none" stroke="#8bc4c5" stroke-width="0.8" opacity="0.32"/><circle cx="505" cy="273" r="118" fill="url(#halo)" opacity="0.55"/><circle cx="505" cy="273" r="62" fill="#f7f2ec" opacity="0.95"/><circle cx="505" cy="273" r="84" fill="none" stroke="#f7f2ec" stroke-width="0.8" opacity="0.32"/><circle cx="695" cy="273" r="103" fill="url(#halo)" opacity="0.55"/><circle cx="695" cy="273" r="54" fill="#e6d2b5" opacity="0.95"/><circle cx="695" cy="273" r="76" fill="none" stroke="#e6d2b5" stroke-width="0.8" opacity="0.32"/><circle cx="864" cy="292" r="76" fill="url(#halo)" opacity="0.55"/><circle cx="864" cy="292" r="40" fill="#8bc4c5" opacity="0.95"/><circle cx="864" cy="292" r="62" fill="none" stroke="#8bc4c5" stroke-width="0.8" opacity="0.32"/><ellipse cx="600.0" cy="855" rx="936.0" ry="230" fill="none" stroke="#a5854e" stroke-width="1.2" opacity="0.4"/>
<ellipse cx="600.0" cy="925" rx="1140.0" ry="290" fill="none" stroke="#8bc4c5" stroke-width="1" opacity="0.22"/>
<rect width="1200" height="675" fill="url(#vig)"/>
</svg>